<svg xmlns="http://www.w3.org/2000/svg" xmlns:xlink="http://www.w3.org/1999/xlink" width="500" zoomAndPan="magnify" viewBox="0 0 375 374.999991" height="500" preserveAspectRatio="xMidYMid meet" version="1.0"><defs><g/><clipPath id="377357c44a"><path d="M 114 240 L 133 240 L 133 271.167969 L 114 271.167969 Z M 114 240 " clip-rule="nonzero"/></clipPath><clipPath id="61f2fc4f4c"><path d="M 109 240 L 122 240 L 122 271.167969 L 109 271.167969 Z M 109 240 " clip-rule="nonzero"/></clipPath><clipPath id="cb5c070bd0"><path d="M 114 88.917969 L 202 88.917969 L 202 249 L 114 249 Z M 114 88.917969 " clip-rule="nonzero"/></clipPath><clipPath id="b0419b455b"><path d="M 41 88.917969 L 122 88.917969 L 122 249 L 41 249 Z M 41 88.917969 " clip-rule="nonzero"/></clipPath></defs><g clip-path="url(#377357c44a)"><path fill="#6d5036" d="M 132.820312 248.058594 L 114.140625 240.933594 L 121.265625 271.167969 L 132.820312 271.167969 Z M 132.820312 248.058594 " fill-opacity="1" fill-rule="nonzero"/></g><g clip-path="url(#61f2fc4f4c)"><path fill="#896443" d="M 109.710938 248.058594 L 109.710938 271.167969 L 121.265625 271.167969 L 121.265625 240.933594 Z M 109.710938 248.058594 " fill-opacity="1" fill-rule="nonzero"/></g><g clip-path="url(#cb5c070bd0)"><path fill="#004d50" d="M 174.613281 219.25 L 188.21875 211.546875 L 157.886719 182.734375 L 175.347656 175.03125 L 148.863281 146.222656 L 162.472656 138.519531 L 121.265625 88.917969 L 114.140625 180.847656 L 121.265625 248.058594 L 201.09375 248.058594 Z M 174.613281 219.25 " fill-opacity="1" fill-rule="nonzero"/></g><g clip-path="url(#b0419b455b)"><path fill="#4f7f81" d="M 121.265625 88.917969 L 80.058594 138.519531 L 93.664062 146.222656 L 67.183594 175.03125 L 80.789062 182.734375 L 54.308594 211.546875 L 67.917969 219.25 L 41.433594 248.058594 L 121.265625 248.058594 Z M 121.265625 88.917969 " fill-opacity="1" fill-rule="nonzero"/></g><g fill="#16343b" fill-opacity="1"><g transform="translate(205.081865, 178.56918)"><g><path d="M 4.34375 -12.03125 L 4.34375 -34.21875 C 4.34375 -35.050781 4.578125 -35.691406 5.046875 -36.140625 C 5.523438 -36.597656 6.132812 -36.953125 6.875 -37.203125 C 8.238281 -37.691406 9.867188 -38.039062 11.765625 -38.25 C 13.671875 -38.457031 15.390625 -38.5625 16.921875 -38.5625 C 22.503906 -38.5625 26.738281 -37.375 29.625 -35 C 32.519531 -32.625 33.96875 -29.390625 33.96875 -25.296875 C 33.96875 -22.609375 33.335938 -20.269531 32.078125 -18.28125 C 30.816406 -16.300781 29 -14.765625 26.625 -13.671875 C 24.25 -12.578125 21.410156 -12.03125 18.109375 -12.03125 Z M 9.484375 0.4375 C 7.628906 0.4375 6.304688 0.0976562 5.515625 -0.578125 C 4.734375 -1.265625 4.34375 -2.4375 4.34375 -4.09375 L 4.34375 -16.25 L 13.953125 -16.25 L 13.953125 -0.0625 C 13.535156 0.0625 12.910156 0.175781 12.078125 0.28125 C 11.253906 0.382812 10.390625 0.4375 9.484375 0.4375 Z M 13.890625 -19.59375 L 17.546875 -19.59375 C 19.566406 -19.59375 21.1875 -20.078125 22.40625 -21.046875 C 23.625 -22.015625 24.234375 -23.410156 24.234375 -25.234375 C 24.234375 -27.097656 23.664062 -28.503906 22.53125 -29.453125 C 21.394531 -30.398438 19.753906 -30.875 17.609375 -30.875 C 16.828125 -30.875 16.144531 -30.851562 15.5625 -30.8125 C 14.976562 -30.769531 14.421875 -30.6875 13.890625 -30.5625 Z M 13.890625 -19.59375 "/></g></g></g><g fill="#16343b" fill-opacity="1"><g transform="translate(240.913303, 178.56918)"><g><path d="M 3.21875 -38.3125 C 3.21875 -39.757812 3.710938 -40.96875 4.703125 -41.9375 C 5.703125 -42.914062 6.945312 -43.40625 8.4375 -43.40625 C 10 -43.40625 11.253906 -42.914062 12.203125 -41.9375 C 13.160156 -40.96875 13.640625 -39.757812 13.640625 -38.3125 C 13.640625 -36.945312 13.160156 -35.769531 12.203125 -34.78125 C 11.253906 -33.789062 10 -33.296875 8.4375 -33.296875 C 6.945312 -33.296875 5.703125 -33.789062 4.703125 -34.78125 C 3.710938 -35.769531 3.21875 -36.945312 3.21875 -38.3125 Z M 3.78125 -16.375 L 13.140625 -16.375 L 13.140625 -0.0625 C 12.734375 0.0625 12.15625 0.175781 11.40625 0.28125 C 10.664062 0.382812 9.835938 0.4375 8.921875 0.4375 C 7.148438 0.4375 5.847656 0.128906 5.015625 -0.484375 C 4.191406 -1.109375 3.78125 -2.25 3.78125 -3.90625 Z M 13.140625 -11.53125 L 3.78125 -11.53125 L 3.78125 -29.453125 C 4.195312 -29.578125 4.785156 -29.691406 5.546875 -29.796875 C 6.316406 -29.898438 7.132812 -29.953125 8 -29.953125 C 9.8125 -29.953125 11.117188 -29.648438 11.921875 -29.046875 C 12.734375 -28.441406 13.140625 -27.296875 13.140625 -25.609375 Z M 13.140625 -11.53125 "/></g></g></g><g fill="#16343b" fill-opacity="1"><g transform="translate(257.837145, 178.56918)"><g><path d="M 32.109375 -19.28125 L 32.109375 -13.453125 L 22.8125 -13.453125 L 22.8125 -18.96875 C 22.8125 -20.5 22.367188 -21.613281 21.484375 -22.3125 C 20.597656 -23.019531 19.429688 -23.375 17.984375 -23.375 C 16.984375 -23.375 16.0625 -23.25 15.21875 -23 C 14.375 -22.75 13.597656 -22.441406 12.890625 -22.078125 L 12.890625 -13.453125 L 3.53125 -13.453125 L 3.53125 -23.125 C 3.53125 -24.15625 3.753906 -25.007812 4.203125 -25.6875 C 4.660156 -26.375 5.304688 -27.007812 6.140625 -27.59375 C 7.460938 -28.5 9.15625 -29.238281 11.21875 -29.8125 C 13.289062 -30.394531 15.585938 -30.6875 18.109375 -30.6875 C 22.566406 -30.6875 26.015625 -29.703125 28.453125 -27.734375 C 30.890625 -25.773438 32.109375 -22.957031 32.109375 -19.28125 Z M 3.53125 -16.3125 L 12.890625 -16.3125 L 12.890625 -0.0625 C 12.484375 0.0625 11.894531 0.175781 11.125 0.28125 C 10.363281 0.382812 9.550781 0.4375 8.6875 0.4375 C 6.90625 0.4375 5.597656 0.128906 4.765625 -0.484375 C 3.941406 -1.109375 3.53125 -2.25 3.53125 -3.90625 Z M 22.8125 -16.3125 L 32.109375 -16.3125 L 32.109375 -0.0625 C 31.703125 0.0625 31.125 0.175781 30.375 0.28125 C 29.632812 0.382812 28.832031 0.4375 27.96875 0.4375 C 26.144531 0.4375 24.828125 0.128906 24.015625 -0.484375 C 23.210938 -1.109375 22.8125 -2.25 22.8125 -3.90625 Z M 22.8125 -16.3125 "/></g></g></g><g fill="#16343b" fill-opacity="1"><g transform="translate(293.544598, 178.56918)"><g><path d="M 7.9375 -10.546875 L 7.5625 -16.796875 L 22.8125 -19.21875 C 22.726562 -20.332031 22.242188 -21.375 21.359375 -22.34375 C 20.472656 -23.320312 19.140625 -23.8125 17.359375 -23.8125 C 15.492188 -23.8125 13.953125 -23.191406 12.734375 -21.953125 C 11.515625 -20.710938 10.882812 -18.953125 10.84375 -16.671875 L 11.15625 -12.28125 C 11.53125 -10.082031 12.492188 -8.507812 14.046875 -7.5625 C 15.597656 -6.613281 17.445312 -6.140625 19.59375 -6.140625 C 21.332031 -6.140625 22.960938 -6.375 24.484375 -6.84375 C 26.015625 -7.320312 27.234375 -7.832031 28.140625 -8.375 C 28.765625 -8 29.28125 -7.476562 29.6875 -6.8125 C 30.101562 -6.15625 30.3125 -5.4375 30.3125 -4.65625 C 30.3125 -3.414062 29.828125 -2.378906 28.859375 -1.546875 C 27.890625 -0.722656 26.546875 -0.101562 24.828125 0.3125 C 23.117188 0.726562 21.144531 0.9375 18.90625 0.9375 C 15.726562 0.9375 12.867188 0.335938 10.328125 -0.859375 C 7.785156 -2.066406 5.789062 -3.867188 4.34375 -6.265625 C 2.894531 -8.660156 2.171875 -11.675781 2.171875 -15.3125 C 2.171875 -17.957031 2.59375 -20.25 3.4375 -22.1875 C 4.289062 -24.132812 5.425781 -25.738281 6.84375 -27 C 8.269531 -28.257812 9.882812 -29.1875 11.6875 -29.78125 C 13.488281 -30.382812 15.378906 -30.6875 17.359375 -30.6875 C 20.171875 -30.6875 22.648438 -30.128906 24.796875 -29.015625 C 26.953125 -27.898438 28.628906 -26.359375 29.828125 -24.390625 C 31.023438 -22.429688 31.625 -20.191406 31.625 -17.671875 C 31.625 -16.347656 31.269531 -15.351562 30.5625 -14.6875 C 29.863281 -14.03125 28.875 -13.617188 27.59375 -13.453125 Z M 7.9375 -10.546875 "/></g></g></g><g fill="#16343b" fill-opacity="1"><g transform="translate(205.093584, 229.914609)"><g><path d="M 16.734375 -27.65625 C 19.140625 -27.65625 21.3125 -27.132812 23.25 -26.09375 C 25.1875 -25.0625 26.707031 -23.5 27.8125 -21.40625 C 28.925781 -19.320312 29.484375 -16.671875 29.484375 -13.453125 C 29.484375 -10.273438 28.898438 -7.617188 27.734375 -5.484375 C 26.566406 -3.359375 24.945312 -1.773438 22.875 -0.734375 C 20.8125 0.296875 18.398438 0.8125 15.640625 0.8125 C 13.609375 0.8125 11.804688 0.5625 10.234375 0.0625 C 8.660156 -0.4375 7.359375 -0.992188 6.328125 -1.609375 C 5.515625 -2.148438 4.945312 -2.6875 4.625 -3.21875 C 4.300781 -3.757812 4.140625 -4.445312 4.140625 -5.28125 L 4.140625 -24.140625 L 9.9375 -24.140625 L 9.9375 -5.515625 C 10.476562 -5.128906 11.238281 -4.765625 12.21875 -4.421875 C 13.195312 -4.078125 14.316406 -3.90625 15.578125 -3.90625 C 17.992188 -3.90625 19.925781 -4.679688 21.375 -6.234375 C 22.832031 -7.785156 23.5625 -10.191406 23.5625 -13.453125 C 23.5625 -16.742188 22.832031 -19.144531 21.375 -20.65625 C 19.925781 -22.175781 18.050781 -22.9375 15.75 -22.9375 C 14.289062 -22.9375 13.003906 -22.65625 11.890625 -22.09375 C 10.785156 -21.539062 9.867188 -20.921875 9.140625 -20.234375 L 8.453125 -24.953125 C 9.328125 -25.566406 10.445312 -26.171875 11.8125 -26.765625 C 13.175781 -27.359375 14.816406 -27.65625 16.734375 -27.65625 Z M 9.9375 -22.875 L 4.140625 -22.875 L 4.140625 -37.3125 C 4.367188 -37.382812 4.734375 -37.46875 5.234375 -37.5625 C 5.734375 -37.65625 6.269531 -37.703125 6.84375 -37.703125 C 7.875 -37.703125 8.644531 -37.507812 9.15625 -37.125 C 9.675781 -36.75 9.9375 -36.0625 9.9375 -35.0625 Z M 9.9375 -22.875 "/></g></g></g><g fill="#16343b" fill-opacity="1"><g transform="translate(237.225159, 229.914609)"><g><path d="M 14.078125 0.8125 C 10.359375 0.8125 7.453125 0.09375 5.359375 -1.34375 C 3.273438 -2.78125 2.234375 -4.898438 2.234375 -7.703125 C 2.234375 -10.234375 3.066406 -12.164062 4.734375 -13.5 C 6.410156 -14.84375 8.742188 -15.671875 11.734375 -15.984375 L 19.78125 -16.78125 L 19.78125 -18.109375 C 19.78125 -19.828125 19.222656 -21.078125 18.109375 -21.859375 C 16.992188 -22.648438 15.476562 -23.046875 13.5625 -23.046875 C 12.03125 -23.046875 10.546875 -22.832031 9.109375 -22.40625 C 7.671875 -21.988281 6.394531 -21.492188 5.28125 -20.921875 C 4.9375 -21.234375 4.628906 -21.609375 4.359375 -22.046875 C 4.097656 -22.484375 3.96875 -22.929688 3.96875 -23.390625 C 3.96875 -24.617188 4.617188 -25.519531 5.921875 -26.09375 C 6.953125 -26.59375 8.164062 -26.976562 9.5625 -27.25 C 10.96875 -27.519531 12.414062 -27.65625 13.90625 -27.65625 C 17.4375 -27.65625 20.242188 -26.882812 22.328125 -25.34375 C 24.421875 -23.8125 25.46875 -21.378906 25.46875 -18.046875 L 25.46875 -4.59375 C 25.46875 -3.71875 25.273438 -3.039062 24.890625 -2.5625 C 24.503906 -2.082031 23.988281 -1.628906 23.34375 -1.203125 C 22.34375 -0.671875 21.046875 -0.203125 19.453125 0.203125 C 17.867188 0.609375 16.078125 0.8125 14.078125 0.8125 Z M 14.078125 -3.734375 C 15.460938 -3.734375 16.648438 -3.875 17.640625 -4.15625 C 18.640625 -4.445312 19.351562 -4.726562 19.78125 -5 L 19.78125 -12.46875 L 13.34375 -11.84375 C 11.570312 -11.6875 10.234375 -11.28125 9.328125 -10.625 C 8.429688 -9.976562 7.984375 -9.039062 7.984375 -7.8125 C 7.984375 -6.550781 8.488281 -5.554688 9.5 -4.828125 C 10.519531 -4.097656 12.046875 -3.734375 14.078125 -3.734375 Z M 14.078125 -3.734375 "/></g></g></g><g fill="#16343b" fill-opacity="1"><g transform="translate(266.540194, 229.914609)"><g><path d="M 28.046875 -17.640625 L 28.046875 -11.90625 L 22.25 -11.90625 L 22.25 -17.421875 C 22.25 -19.335938 21.703125 -20.734375 20.609375 -21.609375 C 19.515625 -22.492188 18.046875 -22.9375 16.203125 -22.9375 C 14.867188 -22.9375 13.664062 -22.769531 12.59375 -22.4375 C 11.519531 -22.113281 10.597656 -21.722656 9.828125 -21.265625 L 9.828125 -11.90625 L 4.03125 -11.90625 L 4.03125 -21.390625 C 4.03125 -22.265625 4.203125 -22.96875 4.546875 -23.5 C 4.890625 -24.039062 5.460938 -24.582031 6.265625 -25.125 C 7.335938 -25.769531 8.734375 -26.351562 10.453125 -26.875 C 12.179688 -27.394531 14.117188 -27.65625 16.265625 -27.65625 C 19.941406 -27.65625 22.820312 -26.820312 24.90625 -25.15625 C 27 -23.488281 28.046875 -20.984375 28.046875 -17.640625 Z M 4.03125 -14.890625 L 9.828125 -14.890625 L 9.828125 -0.109375 C 9.554688 -0.0351562 9.179688 0.0546875 8.703125 0.171875 C 8.222656 0.285156 7.71875 0.34375 7.1875 0.34375 C 6.113281 0.34375 5.316406 0.144531 4.796875 -0.25 C 4.285156 -0.65625 4.03125 -1.359375 4.03125 -2.359375 Z M 22.25 -14.890625 L 28.046875 -14.890625 L 28.046875 -0.109375 C 27.816406 -0.0351562 27.453125 0.0546875 26.953125 0.171875 C 26.460938 0.285156 25.945312 0.34375 25.40625 0.34375 C 24.289062 0.34375 23.484375 0.144531 22.984375 -0.25 C 22.492188 -0.65625 22.25 -1.359375 22.25 -2.359375 Z M 22.25 -14.890625 "/></g></g></g><g fill="#16343b" fill-opacity="1"><g transform="translate(298.614284, 229.914609)"><g><path d="M 12.703125 -11.78125 L 8.796875 -14.546875 L 21.90625 -27.359375 C 23.050781 -27.328125 23.96875 -27.0625 24.65625 -26.5625 C 25.351562 -26.0625 25.703125 -25.390625 25.703125 -24.546875 C 25.703125 -23.890625 25.476562 -23.289062 25.03125 -22.75 C 24.59375 -22.21875 23.929688 -21.585938 23.046875 -20.859375 Z M 8.859375 -13.625 L 13.15625 -15.921875 L 27.1875 -3.046875 C 27.070312 -1.972656 26.742188 -1.128906 26.203125 -0.515625 C 25.671875 0.0976562 24.925781 0.40625 23.96875 0.40625 C 23.238281 0.40625 22.578125 0.210938 21.984375 -0.171875 C 21.390625 -0.554688 20.785156 -1.09375 20.171875 -1.78125 Z M 4.140625 -15.34375 L 9.9375 -14.828125 L 9.9375 -0.109375 C 9.675781 -0.0351562 9.304688 0.0546875 8.828125 0.171875 C 8.347656 0.285156 7.835938 0.34375 7.296875 0.34375 C 6.222656 0.34375 5.425781 0.144531 4.90625 -0.25 C 4.394531 -0.65625 4.140625 -1.359375 4.140625 -2.359375 Z M 9.9375 -11.90625 L 4.140625 -12.421875 L 4.140625 -37.3125 C 4.367188 -37.382812 4.734375 -37.46875 5.234375 -37.5625 C 5.734375 -37.65625 6.269531 -37.703125 6.84375 -37.703125 C 7.875 -37.703125 8.644531 -37.507812 9.15625 -37.125 C 9.675781 -36.75 9.9375 -36.0625 9.9375 -35.0625 Z M 9.9375 -11.90625 "/></g></g></g></svg>