<svg width="36" height="36" viewBox="0 0 36 36" fill="none" xmlns="http://www.w3.org/2000/svg">
<path d="M6 12H30M6 12V25.2003C6 26.8805 6 27.7201 6.32698 28.3618C6.6146 28.9263 7.07321 29.3857 7.6377 29.6733C8.2788 30 9.11849 30 10.7954 30H25.2046C26.8815 30 27.72 30 28.3611 29.6733C28.9256 29.3857 29.3857 28.9263 29.6733 28.3618C30 27.7207 30 26.8822 30 25.2054V12M6 12V10.8003C6 9.12014 6 8.27943 6.32698 7.6377C6.6146 7.07321 7.07321 6.6146 7.6377 6.32698C8.27943 6 9.12014 6 10.8003 6H12M30 12V10.7954C30 9.11849 30 8.2788 29.6733 7.6377C29.3857 7.07321 28.9256 6.6146 28.3611 6.32698C27.7194 6 26.8805 6 25.2003 6H24M12 6H24M12 6V3M24 6V3M22.5 18L16.5 24L13.5 21" stroke="#878787" stroke-width="2" stroke-linecap="round" stroke-linejoin="round"/>
</svg>
