<svg width="25" height="24" viewBox="0 0 25 24" fill="none" xmlns="http://www.w3.org/2000/svg">
<path d="M5.76624 19.9203L7.2902 18.7012L7.3014 18.6926C7.61911 18.4384 7.77944 18.3101 7.95831 18.2188C8.11878 18.1368 8.28991 18.0771 8.46643 18.0408C8.6654 18 8.87266 18 9.2887 18H17.9697C19.0876 18 19.6472 18 20.0746 17.7822C20.451 17.5905 20.7571 17.2842 20.9489 16.9079C21.1666 16.4805 21.1666 15.9215 21.1666 14.8036V7.19691C21.1666 6.07899 21.1666 5.5192 20.9489 5.0918C20.7571 4.71547 20.4503 4.40973 20.074 4.21799C19.6462 4 19.0869 4 17.9668 4H6.36682C5.24672 4 4.68625 4 4.25842 4.21799C3.8821 4.40973 3.57636 4.71547 3.38461 5.0918C3.16663 5.51962 3.16663 6.08009 3.16663 7.2002V18.6712C3.16663 19.7369 3.16663 20.2696 3.38508 20.5433C3.57507 20.7813 3.86306 20.9198 4.1676 20.9195C4.51778 20.9191 4.93406 20.5861 5.76624 19.9203Z" stroke="white" stroke-width="2" stroke-linecap="round" stroke-linejoin="round"/>
</svg>
