<svg width="32" height="32" viewBox="0 0 32 32" fill="none" xmlns="http://www.w3.org/2000/svg">
<rect x="0.0500488" width="31.1" height="32" rx="10" fill="#1D484E"/>
<path d="M7.05005 7H7.3184C7.79217 7 8.02948 7 8.22272 7.08548C8.39309 7.16084 8.53876 7.28218 8.6438 7.43604C8.76274 7.61026 8.80569 7.8429 8.89142 8.30727L11.0501 20L21.4719 20C21.9251 20 22.1524 20 22.3401 19.9199C22.5059 19.8492 22.6489 19.7346 22.7551 19.5889C22.8752 19.4242 22.9261 19.2037 23.0278 18.7631L23.0286 18.76L24.5978 11.96L24.5981 11.9585C24.7524 11.2902 24.8297 10.9552 24.7448 10.6924C24.6703 10.4618 24.5135 10.2663 24.3056 10.1419C24.0685 10 23.7258 10 23.0388 10H9.55005M22.05 25C21.4978 25 21.05 24.5523 21.05 24C21.05 23.4477 21.4978 23 22.05 23C22.6023 23 23.05 23.4477 23.05 24C23.05 24.5523 22.6023 25 22.05 25ZM12.05 25C11.4978 25 11.05 24.5523 11.05 24C11.05 23.4477 11.4978 23 12.05 23C12.6023 23 13.05 23.4477 13.05 24C13.05 24.5523 12.6023 25 12.05 25Z" stroke="white" stroke-width="2" stroke-linecap="round" stroke-linejoin="round"/>
</svg>
