Sheraton/60<svg width="48" height="36" viewBox="0 0 48 36" fill="none" xmlns="http://www.w3.org/2000/svg">
<rect width="48" height="36" rx="10" fill="#DAD5C1"/>
<path d="M4.69886 28.2102V27.3409L8.53409 21.2727H9.16477V22.6193H8.73864L5.84091 27.2045V27.2727H11.0057V28.2102H4.69886ZM8.80682 30V27.946V27.5412V21.2727H9.8125V30H8.80682ZM12.3981 28.2102V27.3409L16.2333 21.2727H16.864V22.6193H16.4379L13.5401 27.2045V27.2727H18.7049V28.2102H12.3981ZM16.506 30V27.946V27.5412V21.2727H17.5117V30H16.506ZM20.3018 30V29.233L23.1825 26.0795C23.5206 25.7102 23.799 25.3892 24.0178 25.1165C24.2365 24.8409 24.3984 24.5824 24.5036 24.3409C24.6115 24.0966 24.6655 23.8409 24.6655 23.5739C24.6655 23.267 24.5916 23.0014 24.4439 22.777C24.299 22.5526 24.1001 22.3793 23.8473 22.2571C23.5945 22.1349 23.3104 22.0739 22.995 22.0739C22.6598 22.0739 22.3672 22.1435 22.1172 22.2827C21.87 22.419 21.6783 22.6108 21.5419 22.858C21.4084 23.1051 21.3416 23.3949 21.3416 23.7273H20.3359C20.3359 23.2159 20.4538 22.767 20.6896 22.3807C20.9254 21.9943 21.2464 21.6932 21.6527 21.4773C22.0618 21.2614 22.5206 21.1534 23.0291 21.1534C23.5405 21.1534 23.9936 21.2614 24.3885 21.4773C24.7834 21.6932 25.093 21.9844 25.3175 22.3509C25.5419 22.7173 25.6541 23.125 25.6541 23.5739C25.6541 23.8949 25.5959 24.2088 25.4794 24.5156C25.3658 24.8196 25.1669 25.1591 24.8828 25.5341C24.6016 25.9062 24.2109 26.3608 23.7109 26.8977L21.7507 28.9943V29.0625H25.8075V30H20.3018ZM30.5163 30.1193C29.9538 30.1193 29.4524 30.0227 29.0121 29.8295C28.5746 29.6364 28.2266 29.3679 27.968 29.0241C27.7124 28.6776 27.5732 28.2756 27.5504 27.8182H28.6243C28.647 28.0994 28.7436 28.3423 28.9141 28.5469C29.0845 28.7486 29.3075 28.9048 29.5831 29.0156C29.8587 29.1264 30.1641 29.1818 30.4993 29.1818C30.8743 29.1818 31.2067 29.1165 31.4964 28.9858C31.7862 28.8551 32.0135 28.6733 32.1783 28.4403C32.343 28.2074 32.4254 27.9375 32.4254 27.6307C32.4254 27.3097 32.3459 27.027 32.1868 26.7827C32.0277 26.5355 31.7947 26.3423 31.4879 26.2031C31.1811 26.0639 30.8061 25.9943 30.3629 25.9943H29.6641V25.0568H30.3629C30.7095 25.0568 31.0135 24.9943 31.2749 24.8693C31.5391 24.7443 31.745 24.5682 31.8928 24.3409C32.0433 24.1136 32.1186 23.8466 32.1186 23.5398C32.1186 23.2443 32.0533 22.9872 31.9226 22.7685C31.7919 22.5497 31.6072 22.3793 31.3686 22.2571C31.1328 22.1349 30.8544 22.0739 30.5334 22.0739C30.2322 22.0739 29.9482 22.1293 29.6811 22.2401C29.4169 22.348 29.201 22.5057 29.0334 22.7131C28.8658 22.9176 28.7749 23.1648 28.7607 23.4545H27.7379C27.755 22.9972 27.8928 22.5966 28.1513 22.2528C28.4098 21.9062 28.7479 21.6364 29.1655 21.4432C29.5859 21.25 30.0476 21.1534 30.5504 21.1534C31.0902 21.1534 31.5533 21.2628 31.9396 21.4815C32.326 21.6974 32.6229 21.983 32.8303 22.3381C33.0376 22.6932 33.1413 23.0767 33.1413 23.4886C33.1413 23.9801 33.0121 24.3991 32.7536 24.7457C32.4979 25.0923 32.1499 25.3324 31.7095 25.4659V25.5341C32.2607 25.625 32.6911 25.8594 33.0007 26.2372C33.3104 26.6122 33.4652 27.0767 33.4652 27.6307C33.4652 28.1051 33.3359 28.5312 33.0774 28.9091C32.8217 29.2841 32.4723 29.5795 32.0291 29.7955C31.5859 30.0114 31.0817 30.1193 30.5163 30.1193Z" fill="black"/>
</svg>
