<svg width="28" height="22" viewBox="0 0 28 22" fill="none" xmlns="http://www.w3.org/2000/svg">
<path d="M25.6667 0.5H8.16667C7.36167 0.5 6.73167 0.908333 6.31167 1.52667L0 11L6.31167 20.4617C6.73167 21.08 7.36167 21.5 8.16667 21.5H25.6667C26.95 21.5 28 20.45 28 19.1667V2.83333C28 1.55 26.95 0.5 25.6667 0.5ZM25.6667 19.1667H8.24833L2.8 11L8.23667 2.83333H25.6667V19.1667ZM12.145 16.8333L16.3333 12.645L20.5217 16.8333L22.1667 15.1883L17.9783 11L22.1667 6.81167L20.5217 5.16667L16.3333 9.355L12.145 5.16667L10.5 6.81167L14.6883 11L10.5 15.1883L12.145 16.8333Z" fill="white"/>
</svg>
