<svg width="24" height="24" viewBox="0 0 24 24" fill="none" xmlns="http://www.w3.org/2000/svg">
<path d="M3 11C3 7.22876 3 5.34315 4.17157 4.17157C5.34315 3 7.22876 3 11 3H13C16.7712 3 18.6569 3 19.8284 4.17157C21 5.34315 21 7.22876 21 11V13C21 16.7712 21 18.6569 19.8284 19.8284C18.6569 21 16.7712 21 13 21H11C7.22876 21 5.34315 21 4.17157 19.8284C3 18.6569 3 16.7712 3 13V11Z" stroke="white" stroke-width="1.5"/>
<path d="M8.65906 6.75V13.4318" stroke="white" stroke-width="1.5" stroke-linecap="round" stroke-linejoin="round"/>
<circle cx="8.65909" cy="15.3407" r="1.90909" stroke="white" stroke-width="1.5"/>
<path d="M15.3409 17.25V10.5682" stroke="white" stroke-width="1.5" stroke-linecap="round" stroke-linejoin="round"/>
<circle cx="1.90909" cy="1.90909" r="1.90909" transform="matrix(1 0 0 -1 13.4318 10.5684)" stroke="white" stroke-width="1.5"/>
</svg>
