<svg width="89" height="88" viewBox="0 0 89 88" fill="none" xmlns="http://www.w3.org/2000/svg">
<path fill-rule="evenodd" clip-rule="evenodd" d="M0.5 16C0.5 7.16344 7.66344 0 16.5 0H72.5C81.3366 0 88.5 7.16344 88.5 16V72C88.5 80.8366 81.3366 88 72.5 88H16.5C7.66344 88 0.5 80.8366 0.5 72V16ZM22.2778 13.8889C18.5345 13.8889 15.5 16.9234 15.5 20.6667V30.5185C15.5 31.439 14.7538 32.1852 13.8333 32.1852C12.9129 32.1852 12.1667 31.439 12.1667 30.5185V20.6667C12.1667 15.0824 16.6936 10.5556 22.2778 10.5556H31.6605C32.581 10.5556 33.3272 11.3017 33.3272 12.2222C33.3272 13.1427 32.581 13.8889 31.6605 13.8889H22.2778ZM15.5 67.5804C15.5 71.3237 18.5345 74.3582 22.2778 74.3582H31.6605C32.581 74.3582 33.3271 75.1044 33.3271 76.0248C33.3271 76.9453 32.581 77.6915 31.6605 77.6915H22.2778C16.6936 77.6915 12.1667 73.1646 12.1667 67.5804V57.7286C12.1667 56.8081 12.9128 56.0619 13.8333 56.0619C14.7538 56.0619 15.5 56.8081 15.5 57.7286V67.5804ZM68.7222 13.8889C72.4655 13.8889 75.5 16.9234 75.5 20.6667V30.5185C75.5 31.439 76.2462 32.1852 77.1667 32.1852C78.0871 32.1852 78.8333 31.439 78.8333 30.5185V20.6667C78.8333 15.0825 74.3064 10.5556 68.7222 10.5556H59.3395C58.419 10.5556 57.6728 11.3017 57.6728 12.2222C57.6728 13.1427 58.419 13.8889 59.3395 13.8889H68.7222ZM75.5 67.5804C75.5 71.3237 72.4655 74.3582 68.7222 74.3582H59.3395C58.419 74.3582 57.6728 75.1044 57.6728 76.0248C57.6728 76.9453 58.419 77.6915 59.3395 77.6915H68.7222C74.3064 77.6915 78.8333 73.1646 78.8333 67.5804V57.7286C78.8333 56.8081 78.0871 56.0619 77.1667 56.0619C76.2462 56.0619 75.5 56.8081 75.5 57.7286V67.5804ZM33.4215 56.8784C33.7953 56.0373 34.7802 55.6585 35.6214 56.0323L37.0313 56.6589C42.4229 59.0552 48.5772 59.0552 53.9688 56.659L55.3787 56.0323C56.2198 55.6585 57.2048 56.0373 57.5786 56.8784C57.9524 57.7196 57.5736 58.7045 56.7325 59.0784L55.3226 59.705C49.0691 62.4843 41.9309 62.4843 35.6775 59.705L34.2676 59.0784C33.4264 58.7045 33.0476 57.7196 33.4215 56.8784ZM48.5618 34.0986C48.5618 33.1781 47.8156 32.4319 46.8951 32.4319C45.9746 32.4319 45.2284 33.1781 45.2284 34.0986V45.6709C45.2284 46.6563 44.5389 47.5074 43.5749 47.7119L42.1048 48.0237C41.2044 48.2147 40.6292 49.0995 40.8203 50C41.0113 50.9004 41.896 51.4755 42.7965 51.2845L44.2666 50.9727C46.7707 50.4415 48.5618 48.2307 48.5618 45.6709V34.0986ZM32.1297 32.4319C33.0501 32.4319 33.7963 33.1781 33.7963 34.0986V39.6541C33.7963 40.5746 33.0501 41.3208 32.1297 41.3208C31.2092 41.3208 30.463 40.5746 30.463 39.6541V34.0986C30.463 33.1781 31.2092 32.4319 32.1297 32.4319ZM61.0062 34.0986C61.0062 33.1781 60.26 32.4319 59.3395 32.4319C58.4191 32.4319 57.6729 33.1781 57.6729 34.0986V39.6541C57.6729 40.5746 58.4191 41.3208 59.3395 41.3208C60.26 41.3208 61.0062 40.5746 61.0062 39.6541V34.0986Z" fill="white" fill-opacity="0.7"/>
</svg>
