<svg width="55" height="55" viewBox="0 0 55 55" fill="none" xmlns="http://www.w3.org/2000/svg">
<g clip-path="url(#clip0_113_12)">
<path d="M43 0H12C5.37258 0 0 5.37258 0 12V43C0 49.6274 5.37258 55 12 55H43C49.6274 55 55 49.6274 55 43V12C55 5.37258 49.6274 0 43 0Z" fill="white"/>
<path d="M27 34.25C31.0041 34.25 34.25 31.0041 34.25 27C34.25 22.9959 31.0041 19.75 27 19.75C22.9959 19.75 19.75 22.9959 19.75 27C19.75 31.0041 22.9959 34.25 27 34.25Z" stroke="#333333" stroke-width="1.5"/>
<path d="M27 19V17" stroke="#333333" stroke-width="1.5" stroke-linecap="round"/>
<path d="M27 37V35" stroke="#333333" stroke-width="1.5" stroke-linecap="round"/>
<path d="M19 27H17" stroke="#333333" stroke-width="1.5" stroke-linecap="round"/>
<path d="M37 27H35" stroke="#333333" stroke-width="1.5" stroke-linecap="round"/>
<path d="M27 31C29.2091 31 31 29.2091 31 27C31 24.7909 29.2091 23 27 23C24.7909 23 23 24.7909 23 27C23 29.2091 24.7909 31 27 31Z" fill="#333333"/>
</g>
<defs>
<clipPath id="clip0_113_12">
<rect width="55" height="55" fill="white"/>
</clipPath>
</defs>
</svg>
