<svg width="25" height="24" viewBox="0 0 25 24" fill="none" xmlns="http://www.w3.org/2000/svg">
<path d="M11.7348 2.37392C11.3672 2.52616 11.0377 2.85565 10.3788 3.51457C9.72003 4.17335 9.3904 4.50298 9.23818 4.87047C9.03519 5.36053 9.03519 5.91121 9.23818 6.40126C9.39042 6.76881 9.71989 7.09828 10.3788 7.75722C11.0374 8.41578 11.3673 8.74568 11.7347 8.89788C12.2248 9.10086 12.7755 9.10086 13.2655 8.89787C13.6331 8.74563 13.9625 8.41616 14.6215 7.75722C15.2804 7.09828 15.6089 6.76881 15.7612 6.40126C15.9641 5.91121 15.9641 5.36053 15.7612 4.87047C15.6089 4.50293 15.2804 4.17351 14.6215 3.51457C13.9625 2.85564 13.6331 2.52616 13.2655 2.37392C12.7755 2.17093 12.2248 2.17093 11.7348 2.37392Z" stroke="white" stroke-width="2" stroke-linecap="round" stroke-linejoin="round"/>
<path d="M5.3705 8.73769C5.00296 8.88993 4.67348 9.21941 4.01455 9.87834C3.35579 10.5371 3.02614 10.8668 2.87392 11.2342C2.67093 11.7243 2.67093 12.275 2.87392 12.765C3.02616 13.1326 3.35564 13.4621 4.01457 14.121C4.67314 14.7796 5.00303 15.1094 5.37047 15.2616C5.86053 15.4646 6.41121 15.4646 6.90126 15.2616C7.26881 15.1094 7.59828 14.7799 8.25722 14.121C8.91616 13.4621 9.24466 13.1326 9.3969 12.765C9.59989 12.275 9.59989 11.7243 9.3969 11.2342C9.24466 10.8667 8.91616 10.5373 8.25722 9.87834C7.59828 9.2194 7.26881 8.88993 6.90126 8.73769C6.41121 8.5347 5.86056 8.5347 5.3705 8.73769Z" stroke="white" stroke-width="2" stroke-linecap="round" stroke-linejoin="round"/>
<path d="M16.7431 9.87834C16.0843 10.5371 15.7547 10.8667 15.6024 11.2342C15.3994 11.7243 15.3994 12.275 15.6024 12.765C15.7547 13.1326 16.0842 13.462 16.7431 14.121C17.4016 14.7795 17.7316 15.1094 18.099 15.2616C18.589 15.4646 19.1397 15.4646 19.6298 15.2616C19.9973 15.1094 20.3268 14.7799 20.9857 14.121C21.6447 13.4621 21.9732 13.1326 22.1254 12.765C22.3284 12.275 22.3284 11.7243 22.1254 11.2342C21.9732 10.8667 21.6447 10.5373 20.9857 9.87834C20.3268 9.21941 19.9973 8.88993 19.6298 8.73769C19.1397 8.5347 18.5891 8.5347 18.099 8.73769C17.7315 8.88993 17.402 9.21941 16.7431 9.87834Z" stroke="white" stroke-width="2" stroke-linecap="round" stroke-linejoin="round"/>
<path d="M11.7348 15.1019C11.3672 15.2542 11.0377 15.5837 10.3788 16.2426C9.72004 16.9014 9.3904 17.231 9.23818 17.5985C9.03519 18.0886 9.03519 18.6392 9.23818 19.1293C9.39042 19.4968 9.71989 19.8263 10.3788 20.4852C11.0374 21.1438 11.3673 21.4737 11.7347 21.6259C12.2248 21.8289 12.7755 21.8289 13.2655 21.6259C13.6331 21.4737 13.9625 21.1442 14.6215 20.4852C15.2804 19.8263 15.6089 19.4968 15.7612 19.1293C15.9641 18.6392 15.9641 18.0886 15.7612 17.5985C15.6089 17.231 15.2804 16.9015 14.6215 16.2426C13.9625 15.5837 13.6331 15.2542 13.2655 15.1019C12.7755 14.899 12.2248 14.899 11.7348 15.1019Z" stroke="white" stroke-width="2" stroke-linecap="round" stroke-linejoin="round"/>
</svg>
