<svg width="89" height="88" viewBox="0 0 89 88" fill="none" xmlns="http://www.w3.org/2000/svg">
<path fill-rule="evenodd" clip-rule="evenodd" d="M16.5 0C7.66344 0 0.5 7.16344 0.5 16V72C0.5 80.8366 7.66344 88 16.5 88H72.5C81.3366 88 88.5 80.8366 88.5 72V16C88.5 7.16344 81.3366 0 72.5 0H16.5ZM77.3311 25.38C78.5027 24.2085 78.5028 22.309 77.3313 21.1374C76.1598 19.9658 74.2603 19.9657 73.0887 21.1372L36.3158 57.9065L20.288 41.8787C19.1164 40.7071 17.2169 40.7071 16.0453 41.8787C14.8738 43.0503 14.8738 44.9497 16.0453 46.1213L34.1944 64.2704C35.366 65.4419 37.2654 65.442 38.437 64.2705L77.3311 25.38Z" fill="white" fill-opacity="0.7"/>
</svg>
