<svg width="32" height="32" viewBox="0 0 32 32" fill="none" xmlns="http://www.w3.org/2000/svg">
<rect x="0.550049" width="31.1" height="32" rx="10" fill="#1D484E"/>
<path d="M13.55 15V24M13.55 15H9.14966C8.58961 15 8.30986 15 8.09595 15.109C7.90779 15.2049 7.75492 15.3577 7.65904 15.5459C7.55005 15.7598 7.55005 16.04 7.55005 16.6001V24H13.55M13.55 15V9.6001C13.55 9.04004 13.55 8.75981 13.659 8.5459C13.7549 8.35774 13.9078 8.20487 14.0959 8.10899C14.3099 8 14.5896 8 15.1497 8H17.9497C18.5097 8 18.7903 8 19.0042 8.10899C19.1924 8.20487 19.3448 8.35774 19.4407 8.5459C19.5497 8.75981 19.55 9.04005 19.55 9.6001V12M13.55 24H19.55M19.55 24L25.55 24.0001V13.6001C25.55 13.04 25.5497 12.7598 25.4407 12.5459C25.3448 12.3577 25.193 12.2049 25.0048 12.109C24.7909 12 24.5101 12 23.95 12H19.55M19.55 24V12" stroke="white" stroke-width="2" stroke-linecap="round" stroke-linejoin="round"/>
</svg>
