<svg width="89" height="88" viewBox="0 0 89 88" fill="none" xmlns="http://www.w3.org/2000/svg">
<path fill-rule="evenodd" clip-rule="evenodd" d="M16.5 0C7.66344 0 0.5 7.16344 0.5 16V72C0.5 80.8366 7.66344 88 16.5 88H72.5C81.3366 88 88.5 80.8366 88.5 72V16C88.5 7.16344 81.3366 0 72.5 0H16.5ZM59.38 25.76C59.5666 25.8667 59.78 25.92 59.9933 25.92C60.4733 25.92 60.9266 25.6533 61.1666 25.1733C61.5133 24.5333 61.2733 23.7333 60.6066 23.3867C55.1666 20.5867 50.2066 19.3333 44.5266 19.3333C38.7933 19.3333 33.3533 20.72 28.3933 23.4133C27.7533 23.76 27.5133 24.5867 27.86 25.2267C28.2333 25.8667 29.0333 26.1067 29.6733 25.76C34.2333 23.2533 39.2466 22 44.5266 22C49.8333 22 54.26 23.12 59.38 25.76ZM21.06 39.68C21.3 39.84 21.5666 39.92 21.8333 39.92C22.26 39.92 22.66 39.7333 22.8733 39.36C25.2733 36 28.3133 33.3333 31.94 31.4667C39.5666 27.52 49.3533 27.52 57.0066 31.44C60.6066 33.28 63.6466 35.92 66.0466 39.28C66.4733 39.8933 67.3 40.0267 67.9133 39.6C68.5266 39.1733 68.66 38.32 68.2333 37.7333C65.5933 34.0267 62.2333 31.12 58.2333 29.0667C49.8333 24.7467 39.1133 24.7733 30.74 29.0933C26.74 31.1467 23.38 34.08 20.74 37.8133C20.3133 38.4267 20.4466 39.2533 21.06 39.68ZM37.5666 71.7067C37.8066 71.9733 38.1533 72.1067 38.5 72.1067C38.8466 72.1067 39.1933 71.9733 39.4866 71.7067C39.9933 71.1733 39.9933 70.3467 39.4866 69.8133C37.4333 67.7333 36.26 66.4267 34.5533 63.36C32.9266 60.48 32.0733 56.9333 32.0733 53.0933C32.0733 46.64 37.6466 41.3867 44.5 41.3867C51.3533 41.3867 56.9266 46.64 56.9266 53.0933C56.9266 53.84 57.5133 54.4267 58.26 54.4267C59.0066 54.4267 59.5933 53.84 59.5933 53.0933C59.5933 45.1733 52.82 38.72 44.5 38.72C36.18 38.72 29.4066 45.1733 29.4066 53.0933C29.4066 57.3867 30.3666 61.3867 32.2066 64.6667C33.9933 67.8933 35.2466 69.3867 37.5666 71.7067ZM49.3533 64.8C51.6466 66.3733 54.4466 67.1733 57.62 67.1733C57.9933 67.1733 59.3266 67.1467 60.8466 66.8533C61.5933 66.72 62.0733 66.0267 61.94 65.3067C61.8066 64.56 61.1133 64.08 60.3933 64.2133C59.3266 64.4 58.26 64.48 57.62 64.48C54.9533 64.48 52.74 63.8667 50.8466 62.5867C47.5933 60.4 45.6733 56.8533 45.6733 53.0933C45.6733 52.3467 45.0866 51.76 44.34 51.76C43.5933 51.76 43.0066 52.3467 43.0066 53.0933C43.0066 57.7333 45.38 62.1067 49.3533 64.8ZM51.9133 72.6133C52.02 72.64 52.1533 72.6667 52.26 72.6667C52.82 72.6667 53.38 72.2667 53.5133 71.6533C53.7 70.96 53.3 70.2133 52.58 70.0267C48.82 68.9867 46.3933 67.6 43.86 65.0933C40.6333 61.8933 38.8733 57.6267 38.8733 53.0667C38.8733 50.2133 41.3533 47.8933 44.42 47.8933C47.4866 47.8933 49.9666 50.2133 49.9666 53.0667C49.9666 57.3867 53.6466 60.9067 58.18 60.9067C62.7133 60.9067 66.3933 57.3867 66.3933 53.0667C66.3933 41.5467 56.5266 32.1867 44.3933 32.1867C35.78 32.1867 27.9133 37.0133 24.3666 44.4533C23.1666 46.9867 22.5533 49.8933 22.5533 53.0933C22.5533 56.6933 23.1933 60.16 24.5 63.6533C24.74 64.32 25.5133 64.6933 26.2066 64.4267C26.9 64.1867 27.2466 63.4133 26.98 62.72C25.38 58.4533 25.1933 55.1733 25.1933 53.0933C25.1933 50.32 25.7266 47.7867 26.7666 45.6267C29.8866 39.0933 36.82 34.88 44.3933 34.88C55.06 34.88 63.7266 43.04 63.7266 53.0933C63.7266 55.9467 61.2466 58.2667 58.18 58.2667C55.1133 58.2667 52.6333 55.9467 52.6333 53.0933C52.6333 48.7733 48.9533 45.2533 44.42 45.2533C39.8866 45.2533 36.2066 48.7733 36.2066 53.0933C36.2066 58.3733 38.26 63.3067 41.9933 67.0133C44.9 69.8667 47.6733 71.44 51.9133 72.6133Z" fill="white" fill-opacity="0.7"/>
</svg>
