<svg width="21" height="13" viewBox="0 0 21 13" fill="none" xmlns="http://www.w3.org/2000/svg">
<path d="M13.1985 1.39062H7.78613V11.6097H13.1985V1.39062Z" fill="#FF5A00"/>
<path d="M8.14616 6.5C8.14616 4.42379 9.0749 2.58107 10.5001 1.39045C9.45121 0.523786 8.12814 0 6.68498 0C3.26623 0 0.5 2.90712 0.5 6.5C0.5 10.0929 3.26623 13 6.68498 13C8.12814 13 9.45121 12.4762 10.5001 11.6095C9.0729 10.4358 8.14616 8.57621 8.14616 6.5Z" fill="#EB001B"/>
<path d="M20.5001 6.5C20.5001 10.0929 17.7338 13 14.3151 13C12.8719 13 11.5488 12.4762 10.5 11.6095C11.9432 10.4168 12.8539 8.57621 12.8539 6.5C12.8539 4.42379 11.9251 2.58107 10.5 1.39045C11.5468 0.523786 12.8699 0 14.3131 0C17.7338 0 20.5001 2.92605 20.5001 6.5Z" fill="#F79E1B"/>
</svg>
