<svg width="25" height="24" viewBox="0 0 25 24" fill="none" xmlns="http://www.w3.org/2000/svg">
<path d="M3.83327 6.5C3.83327 5.11929 4.95256 4 6.33327 4H20.119C20.3185 4 20.4182 4 20.4984 4.02806C20.642 4.07831 20.7549 4.19124 20.8052 4.33486C20.8333 4.41505 20.8333 4.51479 20.8333 4.71429C20.8333 5.91124 20.8333 6.50972 20.6649 6.99084C20.3634 7.85258 19.6858 8.53011 18.8241 8.83165C18.343 9 17.7445 9 16.5475 9H15.8333M3.83327 6.5C3.83327 7.88071 4.95256 9 6.33327 9H19.8333C20.7761 9 21.2475 9 21.5404 9.29289C21.8333 9.58579 21.8333 10.0572 21.8333 11V13M3.83327 6.5V17C3.83327 18.8856 3.83327 19.8284 4.41906 20.4142C5.00484 21 5.94765 21 7.83327 21H19.8333C20.7761 21 21.2475 21 21.5404 20.7071C21.8333 20.4142 21.8333 19.9428 21.8333 19V17M21.8333 13H17.8333C16.8904 13 16.419 13 16.1261 13.2929C15.8333 13.5858 15.8333 14.0572 15.8333 15C15.8333 15.9428 15.8333 16.4142 16.1261 16.7071C16.419 17 16.8904 17 17.8333 17H21.8333M21.8333 13V17" stroke="white" stroke-width="2"/>
</svg>
