<svg width="24" height="24" viewBox="0 0 24 24" fill="none" xmlns="http://www.w3.org/2000/svg">
<path d="M11.2348 2.3749C10.8672 2.52714 10.5377 2.85663 9.8788 3.51555C9.22003 4.17433 8.8904 4.50395 8.73818 4.87145C8.53519 5.3615 8.53519 5.91218 8.73818 6.40224C8.89042 6.76978 9.21989 7.09925 9.87883 7.75819C10.5374 8.41676 10.8673 8.74666 11.2347 8.89885C11.7248 9.10184 12.2755 9.10184 12.7655 8.89885C13.1331 8.74661 13.4625 8.41714 14.1215 7.7582C14.7804 7.09926 15.1089 6.76978 15.2612 6.40224C15.4641 5.91218 15.4641 5.3615 15.2612 4.87145C15.1089 4.50391 14.7804 4.17449 14.1215 3.51555C13.4625 2.85662 13.1331 2.52714 12.7655 2.3749C12.2755 2.17191 11.7248 2.17191 11.2348 2.3749Z" stroke="white" stroke-width="2" stroke-linecap="round" stroke-linejoin="round"/>
<path d="M4.8705 8.73867C4.50296 8.89091 4.17348 9.22038 3.51455 9.87932C2.85579 10.5381 2.52614 10.8677 2.37392 11.2352C2.17093 11.7253 2.17093 12.276 2.37392 12.766C2.52616 13.1336 2.85564 13.463 3.51457 14.122C4.17314 14.7805 4.50303 15.1104 4.87047 15.2626C5.36053 15.4656 5.91121 15.4656 6.40126 15.2626C6.76881 15.1104 7.09828 14.7809 7.75722 14.122C8.41616 13.463 8.74466 13.1336 8.8969 12.766C9.09989 12.276 9.09989 11.7253 8.8969 11.2352C8.74466 10.8677 8.41616 10.5383 7.75722 9.87932C7.09828 9.22038 6.76881 8.89091 6.40126 8.73867C5.91121 8.53568 5.36056 8.53568 4.8705 8.73867Z" stroke="white" stroke-width="2" stroke-linecap="round" stroke-linejoin="round"/>
<path d="M16.2431 9.87932C15.5843 10.5381 15.2547 10.8677 15.1024 11.2352C14.8994 11.7253 14.8994 12.276 15.1024 12.766C15.2547 13.1336 15.5842 13.463 16.2431 14.122C16.9016 14.7805 17.2316 15.1104 17.599 15.2626C18.089 15.4656 18.6397 15.4656 19.1298 15.2626C19.4973 15.1104 19.8268 14.7809 20.4857 14.122C21.1447 13.463 21.4732 13.1335 21.6254 12.766C21.8284 12.276 21.8284 11.7253 21.6254 11.2352C21.4732 10.8677 21.1447 10.5382 20.4857 9.87932C19.8268 9.22038 19.4973 8.89091 19.1298 8.73867C18.6397 8.53568 18.0891 8.53568 17.599 8.73867C17.2315 8.89091 16.902 9.22039 16.2431 9.87932Z" stroke="white" stroke-width="2" stroke-linecap="round" stroke-linejoin="round"/>
<path d="M11.2348 15.1029C10.8672 15.2552 10.5377 15.5846 9.8788 16.2436C9.22004 16.9023 8.8904 17.232 8.73818 17.5995C8.53519 18.0895 8.53519 18.6402 8.73818 19.1303C8.89042 19.4978 9.21989 19.8273 9.87883 20.4862C10.5374 21.1448 10.8673 21.4747 11.2347 21.6269C11.7248 21.8299 12.2755 21.8299 12.7655 21.6269C13.1331 21.4746 13.4625 21.1452 14.1215 20.4862C14.7804 19.8273 15.1089 19.4978 15.2612 19.1303C15.4641 18.6402 15.4641 18.0895 15.2612 17.5995C15.1089 17.2319 14.7804 16.9025 14.1215 16.2436C13.4625 15.5846 13.1331 15.2552 12.7655 15.1029C12.2755 14.8999 11.7248 14.8999 11.2348 15.1029Z" stroke="white" stroke-width="2" stroke-linecap="round" stroke-linejoin="round"/>
</svg>
