<svg width="36" height="36" viewBox="0 0 36 36" fill="none" xmlns="http://www.w3.org/2000/svg">
<g clip-path="url(#clip0_105_22)">
<path d="M24 0H12C5.37258 0 0 5.37258 0 12V24C0 30.6274 5.37258 36 12 36H24C30.6274 36 36 30.6274 36 24V12C36 5.37258 30.6274 0 24 0Z" fill="white" fill-opacity="0.3"/>
<g clip-path="url(#clip1_105_22)">
<path d="M17 24C17 24.5523 17.4477 25 18 25C18.5523 25 19 24.5523 19 24C19 23.4477 18.5523 23 18 23C17.4477 23 17 23.4477 17 24Z" stroke="#1D484E" stroke-width="2" stroke-linecap="round" stroke-linejoin="round"/>
<path d="M17 18C17 18.5523 17.4477 19 18 19C18.5523 19 19 18.5523 19 18C19 17.4477 18.5523 17 18 17C17.4477 17 17 17.4477 17 18Z" stroke="#1D484E" stroke-width="2" stroke-linecap="round" stroke-linejoin="round"/>
<path d="M17 12C17 12.5523 17.4477 13 18 13C18.5523 13 19 12.5523 19 12C19 11.4477 18.5523 11 18 11C17.4477 11 17 11.4477 17 12Z" stroke="#1D484E" stroke-width="2" stroke-linecap="round" stroke-linejoin="round"/>
</g>
</g>
<defs>
<clipPath id="clip0_105_22">
<rect width="36" height="36" fill="white"/>
</clipPath>
<clipPath id="clip1_105_22">
<rect width="4" height="16" fill="white" transform="translate(16 10)"/>
</clipPath>
</defs>
</svg>
