<svg width="36" height="36" viewBox="0 0 36 36" fill="none" xmlns="http://www.w3.org/2000/svg">
<g clip-path="url(#clip0_208_46473)">
<path d="M28.5 10.5C28.5 8.85 27.15 7.5 25.5 7.5H21V10.5H25.5V14.475L20.28 21H15V13.5H9C5.685 13.5 3 16.185 3 19.5V24H6C6 26.49 8.01 28.5 10.5 28.5C12.99 28.5 15 26.49 15 24H21.72L28.5 15.525V10.5ZM10.5 25.5C9.675 25.5 9 24.825 9 24H12C12 24.825 11.325 25.5 10.5 25.5Z" fill="#878787"/>
<path d="M15 9H7.5V12H15V9Z" fill="#878787"/>
<path d="M28.5 19.5C26.01 19.5 24 21.51 24 24C24 26.49 26.01 28.5 28.5 28.5C30.99 28.5 33 26.49 33 24C33 21.51 30.99 19.5 28.5 19.5ZM28.5 25.5C27.675 25.5 27 24.825 27 24C27 23.175 27.675 22.5 28.5 22.5C29.325 22.5 30 23.175 30 24C30 24.825 29.325 25.5 28.5 25.5Z" fill="#878787"/>
</g>
<defs>
<clipPath id="clip0_208_46473">
<rect width="36" height="36" fill="white"/>
</clipPath>
</defs>
</svg>
