<svg width="32" height="32" viewBox="0 0 32 32" fill="none" xmlns="http://www.w3.org/2000/svg">
<rect x="0.549988" width="31.1" height="32" rx="10" fill="#1D484E"/>
<path d="M16.55 16V22M16.55 22L19.55 20M16.55 22L13.55 20M17.55 7.00087C17.4545 7 17.3473 7 17.2247 7H12.7502C11.6301 7 11.0696 7 10.6418 7.21799C10.2655 7.40973 9.95972 7.71547 9.76797 8.0918C9.54999 8.51962 9.54999 9.08009 9.54999 10.2002V21.8002C9.54999 22.9203 9.54999 23.4801 9.76797 23.9079C9.95972 24.2842 10.2655 24.5905 10.6418 24.7822C11.0692 25 11.629 25 12.7469 25H20.3531C21.471 25 22.03 25 22.4574 24.7822C22.8337 24.5905 23.1405 24.2842 23.3322 23.9079C23.55 23.4805 23.55 22.9215 23.55 21.8036V13.3257C23.55 13.203 23.55 13.0956 23.5491 13M17.55 7.00087C17.8356 7.00347 18.0163 7.01385 18.1888 7.05526C18.3929 7.10425 18.5878 7.18526 18.7668 7.29492C18.9686 7.41857 19.1418 7.59182 19.4875 7.9375L22.613 11.063C22.9589 11.4089 23.1309 11.5814 23.2545 11.7832C23.3642 11.9621 23.4453 12.1573 23.4943 12.3613C23.5357 12.5338 23.5463 12.7145 23.5491 13M17.55 7.00087V9.8C17.55 10.9201 17.55 11.4798 17.768 11.9076C17.9597 12.2839 18.2655 12.5905 18.6418 12.7822C19.0692 13 19.629 13 20.7469 13H23.5491M23.5491 13H23.5502" stroke="white" stroke-width="2" stroke-linecap="round" stroke-linejoin="round"/>
</svg>
